<svg id="visual" viewBox="0 0 1920 1080" width="1920" height="1080" xmlns="http://www.w3.org/2000/svg" xmlns:xlink="http://www.w3.org/1999/xlink" version="1.1"><rect x="0" y="0" width="1920" height="1080" fill="#ffffff"></rect><defs><linearGradient id="grad1_0" x1="43.8%" y1="0%" x2="100%" y2="100%"><stop offset="14.444444444444446%" stop-color="#f48225" stop-opacity="1"></stop><stop offset="85.55555555555554%" stop-color="#f48225" stop-opacity="1"></stop></linearGradient></defs><defs><linearGradient id="grad1_1" x1="43.8%" y1="0%" x2="100%" y2="100%"><stop offset="14.444444444444446%" stop-color="#f48225" stop-opacity="1"></stop><stop offset="85.55555555555554%" stop-color="#fea15f" stop-opacity="1"></stop></linearGradient></defs><defs><linearGradient id="grad1_2" x1="43.8%" y1="0%" x2="100%" y2="100%"><stop offset="14.444444444444446%" stop-color="#ffc093" stop-opacity="1"></stop><stop offset="85.55555555555554%" stop-color="#fea15f" stop-opacity="1"></stop></linearGradient></defs><defs><linearGradient id="grad1_3" x1="43.8%" y1="0%" x2="100%" y2="100%"><stop offset="14.444444444444446%" stop-color="#ffc093" stop-opacity="1"></stop><stop offset="85.55555555555554%" stop-color="#ffdfc8" stop-opacity="1"></stop></linearGradient></defs><defs><linearGradient id="grad1_4" x1="43.8%" y1="0%" x2="100%" y2="100%"><stop offset="14.444444444444446%" stop-color="#ffffff" stop-opacity="1"></stop><stop offset="85.55555555555554%" stop-color="#ffdfc8" stop-opacity="1"></stop></linearGradient></defs><defs><linearGradient id="grad2_0" x1="0%" y1="0%" x2="56.3%" y2="100%"><stop offset="14.444444444444446%" stop-color="#f48225" stop-opacity="1"></stop><stop offset="85.55555555555554%" stop-color="#f48225" stop-opacity="1"></stop></linearGradient></defs><defs><linearGradient id="grad2_1" x1="0%" y1="0%" x2="56.3%" y2="100%"><stop offset="14.444444444444446%" stop-color="#fea15f" stop-opacity="1"></stop><stop offset="85.55555555555554%" stop-color="#f48225" stop-opacity="1"></stop></linearGradient></defs><defs><linearGradient id="grad2_2" x1="0%" y1="0%" x2="56.3%" y2="100%"><stop offset="14.444444444444446%" stop-color="#fea15f" stop-opacity="1"></stop><stop offset="85.55555555555554%" stop-color="#ffc093" stop-opacity="1"></stop></linearGradient></defs><defs><linearGradient id="grad2_3" x1="0%" y1="0%" x2="56.3%" y2="100%"><stop offset="14.444444444444446%" stop-color="#ffdfc8" stop-opacity="1"></stop><stop offset="85.55555555555554%" stop-color="#ffc093" stop-opacity="1"></stop></linearGradient></defs><defs><linearGradient id="grad2_4" x1="0%" y1="0%" x2="56.3%" y2="100%"><stop offset="14.444444444444446%" stop-color="#ffdfc8" stop-opacity="1"></stop><stop offset="85.55555555555554%" stop-color="#ffffff" stop-opacity="1"></stop></linearGradient></defs><g transform="translate(1920, 0)"><path d="M0 864C-53.8 814.6 -107.5 765.2 -171.8 752.6C-236.1 740.1 -310.9 764.4 -351.9 730.7C-392.9 697 -400.2 605.2 -456.4 572.3C-512.6 539.4 -617.8 565.4 -675.5 538.7C-733.2 512 -743.3 432.7 -760.4 366.2C-777.5 299.7 -801.5 246 -819.9 187.1C-838.3 128.2 -851.2 64.1 -864 0L0 0Z" fill="#ffefe3"></path><path d="M0 691.2C-43 651.7 -86 612.2 -137.4 602.1C-188.8 592.1 -248.7 611.5 -281.5 584.5C-314.3 557.6 -320.1 484.2 -365.1 457.8C-410.1 431.5 -494.3 452.3 -540.4 431C-586.5 409.6 -594.7 346.2 -608.3 293C-622 239.8 -641.2 196.8 -655.9 149.7C-670.7 102.6 -680.9 51.3 -691.2 0L0 0Z" fill="#ffd0ae"></path><path d="M0 518.4C-32.3 488.8 -64.5 459.1 -103.1 451.6C-141.6 444.1 -186.5 458.6 -211.1 438.4C-235.7 418.2 -240.1 363.1 -273.8 343.4C-307.6 323.6 -370.7 339.2 -405.3 323.2C-439.9 307.2 -446 259.6 -456.3 219.7C-466.5 179.8 -480.9 147.6 -491.9 112.3C-503 76.9 -510.7 38.5 -518.4 0L0 0Z" fill="#ffb179"></path><path d="M0 345.6C-21.5 325.8 -43 306.1 -68.7 301.1C-94.4 296 -124.3 305.8 -140.8 292.3C-157.2 278.8 -160.1 242.1 -182.6 228.9C-205 215.8 -247.1 226.1 -270.2 215.5C-293.3 204.8 -297.3 173.1 -304.2 146.5C-311 119.9 -320.6 98.4 -328 74.9C-335.3 51.3 -340.5 25.6 -345.6 0L0 0Z" fill="#fa9244"></path><path d="M0 172.8C-10.8 162.9 -21.5 153 -34.4 150.5C-47.2 148 -62.2 152.9 -70.4 146.1C-78.6 139.4 -80 121 -91.3 114.5C-102.5 107.9 -123.6 113.1 -135.1 107.7C-146.6 102.4 -148.7 86.5 -152.1 73.2C-155.5 59.9 -160.3 49.2 -164 37.4C-167.7 25.6 -170.2 12.8 -172.8 0L0 0Z" fill="#f48225"></path></g><g transform="translate(0, 1080)"><path d="M0 -864C68.2 -858.9 136.5 -853.7 184.5 -808.2C232.5 -762.7 260.2 -676.9 308.9 -641.5C357.6 -606.1 427.2 -621.1 483.8 -606.7C540.5 -592.3 584.1 -548.4 636.4 -507.5C688.7 -466.7 749.6 -428.9 778.4 -374.9C807.3 -320.9 804.2 -250.8 813.1 -185.6C822 -120.4 843 -60.2 864 0L0 0Z" fill="#ffefe3"></path><path d="M0 -691.2C54.6 -687.1 109.2 -683 147.6 -646.6C186 -610.2 208.2 -541.5 247.1 -513.2C286.1 -484.9 341.8 -496.9 387.1 -485.4C432.4 -473.8 467.3 -438.7 509.1 -406C551 -373.3 599.7 -343.1 622.7 -299.9C645.8 -256.7 643.3 -200.6 650.5 -148.5C657.6 -96.3 674.4 -48.2 691.2 0L0 0Z" fill="#ffd0ae"></path><path d="M0 -518.4C40.9 -515.3 81.9 -512.2 110.7 -484.9C139.5 -457.6 156.1 -406.1 185.4 -384.9C214.6 -363.7 256.3 -372.7 290.3 -364C324.3 -355.4 350.5 -329 381.8 -304.5C413.2 -280 449.7 -257.3 467.1 -224.9C484.4 -192.5 482.5 -150.5 487.9 -111.3C493.2 -72.2 505.8 -36.1 518.4 0L0 0Z" fill="#ffb179"></path><path d="M0 -345.6C27.3 -343.5 54.6 -341.5 73.8 -323.3C93 -305.1 104.1 -270.8 123.6 -256.6C143 -242.4 170.9 -248.5 193.5 -242.7C216.2 -236.9 233.7 -219.4 254.6 -203C275.5 -186.7 299.8 -171.5 311.4 -150C322.9 -128.4 321.7 -100.3 325.2 -74.2C328.8 -48.2 337.2 -24.1 345.6 0L0 0Z" fill="#fa9244"></path><path d="M0 -172.8C13.6 -171.8 27.3 -170.7 36.9 -161.6C46.5 -152.5 52 -135.4 61.8 -128.3C71.5 -121.2 85.4 -124.2 96.8 -121.3C108.1 -118.5 116.8 -109.7 127.3 -101.5C137.7 -93.3 149.9 -85.8 155.7 -75C161.5 -64.2 160.8 -50.2 162.6 -37.1C164.4 -24.1 168.6 -12 172.8 0L0 0Z" fill="#f48225"></path></g></svg>